<?xml version="1.0" encoding="UTF-8"?>
<svg width="642px" height="480px" viewBox="0 0 642 480" version="1.1" xmlns="http://www.w3.org/2000/svg" xmlns:xlink="http://www.w3.org/1999/xlink">
    <title>Fill 1</title>
    <g id="Page-1" stroke="none" stroke-width="1" fill="none" fill-rule="evenodd">
        <path d="M490.080287,163.698343 L479.096205,163.294948 L478.700353,152.286599 C477.259981,112.313826 460.880327,74.6880773 432.57852,46.3504146 C402.779791,16.4591813 363.144621,0 320.971336,0 C282.763231,0 246.640838,13.5087305 218.032994,38.26918 L278.375586,98.725083 C290.703571,89.8137215 305.46655,85.0063204 320.971336,85.0063204 C340.457935,85.0063204 358.796894,92.6108155 372.611821,106.419592 C386.410116,120.285044 393.997848,138.664518 393.997848,158.194169 C393.997848,173.719874 389.191065,188.518801 380.286042,200.884024 L441.606623,262.34008 C453.954567,253.428718 468.724199,248.617983 484.222332,248.617983 C503.745522,248.617983 522.087808,256.225812 535.876123,270.041256 C564.354234,298.585617 564.354234,345.029379 535.876123,373.570407 C507.401339,402.118101 461.056631,402.118101 432.571867,373.570407 L269.347483,209.958744 C255.459373,196.039951 239.395735,185.008265 221.56573,177.14373 C201.294079,168.185695 179.678524,163.83503 158.189376,163.83503 C117.11716,163.83503 76.4940213,179.704121 46.4890498,209.555349 L45.9767698,210.095431 C-15.4136681,271.914876 -15.2839349,372.146856 46.1164825,433.686258 C75.918538,463.554154 115.553708,480 157.72034,480 C195.938424,480 232.06747,466.504605 260.681967,441.754157 L200.342702,381.278251 C188.01139,390.186278 173.238432,394.99368 157.72034,394.99368 C138.233741,394.99368 119.891456,387.389184 106.079855,373.583742 C78.0641263,345.506119 77.6582941,299.655781 105.071927,271.114754 C105.387944,270.744697 105.72392,270.387976 106.069875,270.041256 C106.412504,269.694537 106.771765,269.357819 107.144333,269.034436 C135.629097,241.573574 181.371709,241.976969 209.370805,270.041256 L372.625127,433.686258 C402.363979,463.494145 441.995823,479.909986 484.222332,479.909986 C526.448841,479.909986 566.09399,463.48081 595.856128,433.656253 C657.392932,371.983497 657.379626,271.621498 595.826189,209.928739 C567.547668,181.587743 529.991556,165.168567 490.080287,163.698343 Z" id="Fill-1" fill="#EE7C00"></path>
    </g>
</svg>